<svg xmlns="http://www.w3.org/2000/svg" xmlns:xlink="http://www.w3.org/1999/xlink" width="500" zoomAndPan="magnify" viewBox="0 0 375 374.999991" height="500" preserveAspectRatio="xMidYMid meet" version="1.0"><defs><g/><clipPath id="8254ba32e2"><path d="M 17.25 0 L 357.75 0 C 362.324219 0 366.710938 1.816406 369.949219 5.050781 C 373.183594 8.289062 375 12.675781 375 17.25 L 375 357.75 C 375 362.324219 373.183594 366.710938 369.949219 369.949219 C 366.710938 373.183594 362.324219 375 357.75 375 L 17.25 375 C 12.675781 375 8.289062 373.183594 5.050781 369.949219 C 1.816406 366.710938 0 362.324219 0 357.75 L 0 17.25 C 0 12.675781 1.816406 8.289062 5.050781 5.050781 C 8.289062 1.816406 12.675781 0 17.25 0 Z M 17.25 0 " clip-rule="nonzero"/></clipPath></defs><g clip-path="url(#8254ba32e2)"><rect x="-37.5" width="450" fill="#000000" y="-37.499999" height="449.999989" fill-opacity="1"/></g><g fill="#ffffff" fill-opacity="1"><g transform="translate(67.21096, 209.999986)"><g><path d="M 12.40625 -8.390625 L 31.359375 -8.390625 L 31.359375 0 L 3.625 0 L 3.625 -46.21875 L 12.40625 -46.21875 Z M 12.40625 -8.390625 "/></g></g></g><g fill="#ffffff" fill-opacity="1"><g transform="translate(100.558675, 209.999986)"><g><path d="M 24.4375 -46.625 C 27.738281 -46.625 30.765625 -46.023438 33.515625 -44.828125 C 36.265625 -43.640625 38.628906 -41.96875 40.609375 -39.8125 C 42.585938 -37.65625 44.113281 -35.144531 45.1875 -32.28125 C 46.269531 -29.425781 46.8125 -26.347656 46.8125 -23.046875 C 46.8125 -19.742188 46.269531 -16.660156 45.1875 -13.796875 C 44.113281 -10.941406 42.585938 -8.429688 40.609375 -6.265625 C 38.628906 -4.109375 36.265625 -2.4375 33.515625 -1.25 C 30.765625 -0.0625 27.738281 0.53125 24.4375 0.53125 C 21.132812 0.53125 18.101562 -0.0625 15.34375 -1.25 C 12.59375 -2.4375 10.21875 -4.109375 8.21875 -6.265625 C 6.21875 -8.429688 4.675781 -10.941406 3.59375 -13.796875 C 2.519531 -16.660156 1.984375 -19.742188 1.984375 -23.046875 C 1.984375 -26.347656 2.519531 -29.425781 3.59375 -32.28125 C 4.675781 -35.144531 6.21875 -37.65625 8.21875 -39.8125 C 10.21875 -41.96875 12.59375 -43.640625 15.34375 -44.828125 C 18.101562 -46.023438 21.132812 -46.625 24.4375 -46.625 Z M 24.4375 -8.3125 C 27.25 -8.3125 29.644531 -8.960938 31.625 -10.265625 C 33.601562 -11.566406 35.128906 -13.328125 36.203125 -15.546875 C 37.285156 -17.773438 37.828125 -20.273438 37.828125 -23.046875 C 37.828125 -25.859375 37.285156 -28.375 36.203125 -30.59375 C 35.128906 -32.820312 33.601562 -34.582031 31.625 -35.875 C 29.644531 -37.175781 27.25 -37.828125 24.4375 -37.828125 C 21.613281 -37.828125 19.203125 -37.175781 17.203125 -35.875 C 15.203125 -34.582031 13.660156 -32.820312 12.578125 -30.59375 C 11.503906 -28.375 10.96875 -25.859375 10.96875 -23.046875 C 10.96875 -20.273438 11.503906 -17.773438 12.578125 -15.546875 C 13.660156 -13.328125 15.203125 -11.566406 17.203125 -10.265625 C 19.203125 -8.960938 21.613281 -8.3125 24.4375 -8.3125 Z M 24.4375 -8.3125 "/></g></g></g><g fill="#ffffff" fill-opacity="1"><g transform="translate(272.509, 209.999986)"><g><path d="M 6.9375 -36.25 C 5.570312 -36.25 4.40625 -36.722656 3.4375 -37.671875 C 2.46875 -38.617188 1.984375 -39.773438 1.984375 -41.140625 C 1.984375 -42.546875 2.46875 -43.722656 3.4375 -44.671875 C 4.40625 -45.617188 5.570312 -46.09375 6.9375 -46.09375 C 8.300781 -46.09375 9.453125 -45.617188 10.390625 -44.671875 C 11.335938 -43.722656 11.8125 -42.546875 11.8125 -41.140625 C 11.8125 -39.773438 11.335938 -38.617188 10.390625 -37.671875 C 9.453125 -36.722656 8.300781 -36.25 6.9375 -36.25 Z M 2.515625 0 L 2.515625 -31.828125 L 11.296875 -31.828125 L 11.296875 0 Z M 2.515625 0 "/></g></g></g><g fill="#ffffff" fill-opacity="1"><g transform="translate(287.631039, 209.999986)"><g><path d="M 18.484375 -32.296875 C 22.140625 -32.296875 25.015625 -31.015625 27.109375 -28.453125 C 29.203125 -25.898438 30.25 -22.179688 30.25 -17.296875 L 30.25 0 L 21.453125 0 L 21.453125 -17.625 C 21.453125 -19.957031 21 -21.617188 20.09375 -22.609375 C 19.195312 -23.597656 17.957031 -24.09375 16.375 -24.09375 C 14.789062 -24.09375 13.515625 -23.539062 12.546875 -22.4375 C 11.578125 -21.34375 11.09375 -19.628906 11.09375 -17.296875 L 11.09375 0 L 2.3125 0 L 2.3125 -31.828125 L 11.09375 -31.828125 L 11.09375 -29.046875 C 12.0625 -30.066406 13.160156 -30.863281 14.390625 -31.4375 C 15.628906 -32.007812 16.992188 -32.296875 18.484375 -32.296875 Z M 18.484375 -32.296875 "/></g></g></g><g fill="#ffffff" fill-opacity="1"><g transform="translate(321.176863, 209.999986)"><g><path d="M 6.609375 -8.3125 C 7.878906 -8.3125 8.976562 -7.859375 9.90625 -6.953125 C 10.832031 -6.054688 11.296875 -4.972656 11.296875 -3.703125 C 11.296875 -2.421875 10.832031 -1.328125 9.90625 -0.421875 C 8.976562 0.472656 7.878906 0.921875 6.609375 0.921875 C 5.367188 0.921875 4.285156 0.472656 3.359375 -0.421875 C 2.441406 -1.328125 1.984375 -2.421875 1.984375 -3.703125 C 1.984375 -4.972656 2.441406 -6.054688 3.359375 -6.953125 C 4.285156 -7.859375 5.367188 -8.3125 6.609375 -8.3125 Z M 6.609375 -8.3125 "/></g></g></g><g fill="#ffffff" fill-opacity="1"><g transform="translate(152.567997, 209.999986)"><g><path d="M 29.84375 0 L 16.4375 -18.75 L 12.40625 -14 L 12.40625 0 L 3.625 0 L 3.625 -46.21875 L 12.40625 -46.21875 L 12.40625 -27.59375 L 28.125 -46.21875 L 39.625 -46.21875 L 22.3125 -25.6875 L 40.609375 0 Z M 29.84375 0 "/></g></g></g><g fill="#ffffff" fill-opacity="1"><g transform="translate(193.839922, 209.999986)"><g><path d="M 12.40625 -8.390625 L 34.34375 -8.390625 L 34.34375 0 L 3.625 0 L 3.625 -46.21875 L 33.9375 -46.21875 L 33.9375 -37.765625 L 12.40625 -37.765625 L 12.40625 -27.265625 L 31.890625 -27.265625 L 31.890625 -18.890625 L 12.40625 -18.890625 Z M 12.40625 -8.390625 "/></g></g></g><g fill="#ffffff" fill-opacity="1"><g transform="translate(230.819568, 209.999986)"><g><path d="M 28 0 L 18.8125 -15.84375 L 12.40625 -15.84375 L 12.40625 0 L 3.625 0 L 3.625 -46.21875 L 20.734375 -46.21875 C 24.171875 -46.21875 27.085938 -45.535156 29.484375 -44.171875 C 31.878906 -42.804688 33.691406 -40.976562 34.921875 -38.6875 C 36.160156 -36.40625 36.78125 -33.851562 36.78125 -31.03125 C 36.78125 -27.945312 36.03125 -25.160156 34.53125 -22.671875 C 33.039062 -20.191406 30.863281 -18.359375 28 -17.171875 L 37.90625 0 Z M 12.40625 -37.765625 L 12.40625 -24.234375 L 20.53125 -24.234375 C 22.738281 -24.234375 24.476562 -24.867188 25.75 -26.140625 C 27.03125 -27.421875 27.671875 -29.050781 27.671875 -31.03125 C 27.671875 -33.007812 27.03125 -34.625 25.75 -35.875 C 24.476562 -37.132812 22.738281 -37.765625 20.53125 -37.765625 Z M 12.40625 -37.765625 "/></g></g></g></svg>